<?xml version="1.0" standalone="no"?>
<!DOCTYPE svg PUBLIC "-//W3C//DTD SVG 20010904//EN"
 "http://www.w3.org/TR/2001/REC-SVG-20010904/DTD/svg10.dtd">
<svg version="1.0" xmlns="http://www.w3.org/2000/svg"
 width="25" height="25" viewBox="0 0 64 64"
 preserveAspectRatio="xMidYMid meet">

<g transform="translate(0.000000,64.000000) scale(0.100000,-0.100000)"
fill="#000000" stroke="none">
<path d="M212 539 c-50 -25 -107 -88 -123 -136 -6 -19 -9 -66 -7 -103 4 -81
35 -135 106 -185 37 -25 55 -30 117 -33 60 -3 82 0 118 17 56 27 105 77 90 92
-8 8 -13 8 -17 0 -12 -18 -69 -12 -111 12 -94 53 -133 182 -85 282 17 35 27
45 46 45 15 0 24 6 24 15 0 24 -105 20 -158 -6z m57 -49 c-12 -25 -19 -60 -19
-101 0 -104 47 -176 147 -224 l48 -24 -40 -16 c-62 -26 -153 -17 -207 21 -60
42 -89 98 -89 172 -1 92 43 162 121 196 55 24 60 20 39 -24z"/>
<path d="M410 528 c0 -7 16 -23 35 -35 44 -29 61 -10 19 24 -32 25 -54 30 -54
11z"/>
<path d="M508 444 c-8 -7 23 -84 33 -84 17 0 19 21 5 55 -14 33 -26 42 -38 29z"/>
<path d="M537 313 c-2 -5 -7 -25 -11 -45 -5 -30 -4 -38 7 -38 18 0 27 21 27
61 0 27 -13 39 -23 22z"/>
</g>
</svg>
