<?xml version="1.0" standalone="no"?>
<!DOCTYPE svg PUBLIC "-//W3C//DTD SVG 20010904//EN"
 "http://www.w3.org/TR/2001/REC-SVG-20010904/DTD/svg10.dtd">
<svg version="1.0" xmlns="http://www.w3.org/2000/svg"
 width="25" height="25" viewBox="0 0 64 64"
 preserveAspectRatio="xMidYMid meet">

<g transform="translate(0.000000,64.000000) scale(0.100000,-0.100000)"
fill="#000000" stroke="none">
<path d="M65 485 c-24 -23 -25 -28 -25 -170 0 -142 1 -147 25 -171 l25 -25
235 3 c209 3 236 5 252 21 14 14 19 38 21 122 3 71 0 105 -7 105 -7 0 -11 -33
-11 -95 0 -141 12 -135 -260 -135 -279 0 -260 -13 -260 175 0 188 -19 175 260
175 207 0 221 -1 240 -20 11 -11 20 -23 20 -28 0 -4 -58 -33 -130 -64 l-130
-57 -105 55 c-59 31 -109 54 -112 50 -9 -8 -11 -6 109 -70 l107 -57 141 62
c152 68 162 78 115 124 l-24 25 -231 0 -231 0 -24 -25z"/>
</g>
</svg>
