<?xml version="1.0" standalone="no"?>
<!DOCTYPE svg PUBLIC "-//W3C//DTD SVG 20010904//EN"
 "http://www.w3.org/TR/2001/REC-SVG-20010904/DTD/svg10.dtd">
<svg version="1.0" xmlns="http://www.w3.org/2000/svg"
 width="20" height="20" viewBox="0 0 64 64"
 preserveAspectRatio="xMidYMid meet">

<g transform="translate(0.000000,64.000000) scale(0.100000,-0.100000)"
fill="#000000" stroke="none">
<path d="M50 568 c-43 -47 -10 -118 55 -118 22 0 41 8 55 22 43 47 10 118 -55
118 -22 0 -41 -8 -55 -22z m94 -30 c14 -23 -3 -52 -33 -56 -42 -6 -67 38 -39
66 17 17 58 11 72 -10z"/>
<path d="M313 518 c5 -18 259 -18 265 0 3 9 -28 12 -133 12 -105 0 -136 -3
-132 -12z"/>
<path d="M50 368 c-43 -47 -10 -118 55 -118 22 0 41 8 55 22 43 47 10 118 -55
118 -22 0 -41 -8 -55 -22z m94 -30 c14 -23 -3 -52 -33 -56 -42 -6 -67 38 -39
66 17 17 58 11 72 -10z"/>
<path d="M313 318 c5 -18 259 -18 265 0 3 9 -28 12 -133 12 -105 0 -136 -3
-132 -12z"/>
<path d="M156 150 c-28 -33 -53 -60 -56 -60 -4 0 -15 9 -25 20 -18 20 -45 27
-45 12 0 -10 63 -72 73 -72 13 0 127 141 122 151 -11 16 -19 10 -69 -51z"/>
<path d="M313 118 c5 -18 259 -18 265 0 3 9 -28 12 -133 12 -105 0 -136 -3
-132 -12z"/>
</g>
</svg>
