<?xml version="1.0"?>
<svg width="40" height="40" xmlns="http://www.w3.org/2000/svg" xmlns:svg="http://www.w3.org/2000/svg" preserveAspectRatio="xMidYMid meet" version="1.0">
 <g class="layer">
  <title>Layer 1</title>
  <g fill="#000000" id="svg_1" transform="matrix(0.035185 0 0 -0.0331893 24.6242 16.4164)">
   <path d="m970.76,-2038.91c-238,-29 -488,-127 -684,-267c-311,-223 -515,-539 -598,-926c-31,-145 -31,-427 0,-572c100,-467 386,-842 797,-1044c136,-67 234,-101 379,-132c145,-31 427,-31 572,0c349,75 646,253 864,517c155,189 257,404 312,659c31,145 31,427 0,572c-100,467 -386,842 -797,1044c-216,106 -391,149 -625,155c-80,2 -179,0 -220,-6zm440,-74c465,-89 859,-399 1046,-824c87,-199 118,-352 118,-581c0,-293 -69,-536 -219,-766c-223,-344 -546,-561 -950,-641c-124,-24 -386,-24 -510,0c-194,39 -361,104 -511,202c-343,223 -561,546 -641,950c-24,124 -24,386 0,510c80,404 298,727 641,950c179,117 384,188 626,219c70,9 317,-3 400,-19z" id="svg_2"/>
   <path d="m1068.76,-2809.91c-21,-5 -57,-27 -82,-49c-24,-21 -47,-39 -50,-39c-3,0 -6,20 -6,45c0,38 -3,45 -20,45c-20,0 -20,-7 -20,-400l0,-400l25,0l25,0l0,162c0,139 2,160 13,143c8,-11 19,-54 26,-95c22,-140 87,-205 206,-205c64,0 128,29 170,75l20,22l5,-43c4,-36 9,-45 28,-47l22,-3l0,400l0,401l-25,0l-25,0l0,-162c0,-160 0,-161 -20,-143c-14,13 -20,31 -20,60c0,113 -64,211 -153,233c-53,14 -68,14 -119,0zm138,-58c36,-23 69,-83 79,-145l6,-41l-69,4c-77,5 -125,-13 -174,-65c-32,-33 -67,-108 -68,-142c0,-23 -1,-24 -20,-6c-18,17 -20,31 -20,170l0,151l38,36c46,46 73,57 141,57c37,1 64,-5 87,-19zm78,-229c10,-16 -14,-109 -37,-143c-39,-56 -81,-78 -155,-78l-65,0l6,51c8,67 48,134 95,159c39,20 146,28 156,11zm96,-220l0,-144l-44,-42c-105,-101 -259,-69 -295,62c-22,78 -19,81 57,81c117,-1 194,58 228,174l18,59l18,-23c15,-20 18,-45 18,-167z" id="svg_3"/>
   <path d="m630.76,-3894.91c0,-81 -1,-85 -17,-70c-46,40 -133,24 -175,-33c-24,-34 -33,-106 -18,-159c16,-59 52,-91 102,-91c38,0 98,26 98,42c0,4 5,8 10,8c6,0 10,-11 10,-25c0,-14 5,-25 10,-25c6,0 10,80 10,220c0,189 -2,220 -15,220c-12,0 -15,-16 -15,-87zm-22,-89c20,-14 22,-24 22,-104c0,-86 -1,-89 -31,-114c-51,-43 -120,-30 -144,29c-27,63 -16,136 27,183c26,27 92,30 126,6z" id="svg_4"/>
   <path d="m833.76,-3948.91c-106,-31 -122,-233 -23,-284c37,-19 103,-19 140,0c82,43 87,218 7,269c-30,20 -86,27 -124,15zm120,-49c48,-57 43,-168 -10,-209c-34,-27 -92,-27 -126,0c-53,41 -58,152 -10,209c21,26 32,30 73,30c41,0 52,-4 73,-30z" id="svg_5"/>
   <path d="m1176.76,-3947.91c-110,-34 -133,-220 -34,-280c70,-42 157,-20 193,50c20,38 19,124 -1,166c-25,52 -98,82 -158,64zm110,-43c23,-20 28,-34 32,-86c5,-73 -10,-116 -49,-136c-70,-37 -145,3 -156,82c-8,59 4,111 32,139c33,33 103,33 141,1z" id="svg_6"/>
   <path d="m1515.76,-3944.91c-63,-16 -95,-67 -95,-151c0,-95 50,-152 133,-152c43,0 107,24 107,39c0,14 -1,14 -43,-4c-91,-38 -149,-5 -171,98l-6,27l115,0l115,0l0,28c0,40 -36,91 -75,108c-35,14 -46,15 -80,7zm105,-51c11,-13 20,-35 20,-48c0,-24 -2,-24 -95,-24c-87,0 -95,2 -95,19c0,11 11,33 25,50c39,46 110,48 145,3z" id="svg_7"/>
   <path d="m1823.76,-3957.91c-18,-11 -33,-24 -33,-30c0,-5 -4,-10 -10,-10c-5,0 -10,11 -10,25c0,14 -4,25 -10,25c-6,0 -10,-57 -10,-150c0,-127 2,-150 15,-150c12,0 15,19 15,111c0,109 0,111 29,140c20,20 39,29 61,29c21,0 30,4 28,13c-7,20 -41,19 -75,-3z" id="svg_8"/>
  </g>
 </g>
</svg>