<?xml version="1.0" standalone="no"?>
<!DOCTYPE svg PUBLIC "-//W3C//DTD SVG 20010904//EN"
 "http://www.w3.org/TR/2001/REC-SVG-20010904/DTD/svg10.dtd">
<svg version="1.0" xmlns="http://www.w3.org/2000/svg"
 width="25" height="25" viewBox="0 0 64 64"
 preserveAspectRatio="xMidYMid meet">

<g transform="translate(0.000000,64.000000) scale(0.100000,-0.100000)"
fill="#000000" stroke="none">
<path d="M532 475 l6 -65 -57 1 c-55 1 -55 1 -21 11 19 6 41 12 49 14 22 7
-16 43 -74 70 -113 53 -262 9 -310 -93 -42 -89 -28 -188 37 -259 93 -100 252
-92 340 17 31 38 51 119 29 119 -6 0 -11 -12 -11 -27 0 -88 -128 -175 -230
-158 -130 22 -206 166 -152 287 47 107 204 152 308 88 l35 -22 -50 -24 c-28
-13 -51 -28 -51 -34 0 -6 35 -10 94 -10 l95 0 -10 32 c-5 18 -9 52 -9 75 0 26
-5 43 -11 43 -8 0 -10 -20 -7 -65z"/>
</g>
</svg>
