<?xml version="1.0" standalone="no"?>
<!DOCTYPE svg PUBLIC "-//W3C//DTD SVG 20010904//EN"
 "http://www.w3.org/TR/2001/REC-SVG-20010904/DTD/svg10.dtd">
<svg version="1.0" xmlns="http://www.w3.org/2000/svg"

 width="18" height="18" viewBox="0 0 30 30"

 preserveAspectRatio="xMidYMid meet">

<g transform="translate(0.000000,30.000000) scale(0.100000,-0.100000)"
fill="#000000" stroke="none">
<path d="M120 265 c-25 -26 -21 -47 5 -25 13 11 15 4 15 -54 0 -37 4 -66 10
-66 6 0 10 29 10 66 0 58 2 65 15 54 26 -22 30 -1 5 25 -13 14 -26 25 -30 25
-4 0 -17 -11 -30 -25z"/>
<path d="M72 198 c-16 -16 -16 -140 0 -156 16 -16 140 -16 156 0 16 16 16 140
0 156 -15 15 -38 16 -38 2 0 -5 7 -10 15 -10 12 0 15 -14 15 -70 l0 -70 -70 0
-70 0 0 70 c0 56 3 70 15 70 8 0 15 5 15 10 0 14 -23 13 -38 -2z"/>
</g>
</svg>
