<svg width="25" height="25" viewBox="0 0 48 48" fill="none" xmlns="http://www.w3.org/2000/svg">
<path d="M18 33C16.6 33 15.4167 32.5167 14.45 31.55C13.4833 30.5833 13 29.4 13 28C13 26.6 13.4833 25.4167 14.45 24.45C15.4167 23.4833 16.6 23 18 23C19.4 23 20.5833 23.4833 21.55 24.45C22.5167 25.4167 23 26.6 23 28C23 29.4 22.5167 30.5833 21.55 31.55C20.5833 32.5167 19.4 33 18 33ZM10 44C8.9 44 7.95833 43.6083 7.175 42.825C6.39167 42.0417 6 41.1 6 40V12C6 10.9 6.39167 9.95833 7.175 9.175C7.95833 8.39167 8.9 8 10 8H12V4H16V8H32V4H36V8H38C39.1 8 40.0417 8.39167 40.825 9.175C41.6083 9.95833 42 10.9 42 12V40C42 41.1 41.6083 42.0417 40.825 42.825C40.0417 43.6083 39.1 44 38 44H10ZM10 40H38V20H10V40Z" fill="#1D1B20"/>
</svg>
